<svg width="16" height="16" viewBox="0 0 16 16" fill="none" xmlns="http://www.w3.org/2000/svg">
<path fill-rule="evenodd" clip-rule="evenodd" d="M5.12987 1.0709C6.03982 0.693993 7.01509 0.5 8 0.5C8.98491 0.5 9.96019 0.693993 10.8701 1.0709C11.7801 1.44781 12.6069 2.00026 13.3033 2.6967C13.9997 3.39314 14.5522 4.21993 14.9291 5.12987C15.306 6.03982 15.5 7.01509 15.5 8C15.5 9.98912 14.7098 11.8968 13.3033 13.3033C11.8968 14.7098 9.98912 15.5 8 15.5C7.01509 15.5 6.03982 15.306 5.12987 14.9291C4.21993 14.5522 3.39314 13.9997 2.6967 13.3033C1.29018 11.8968 0.5 9.98912 0.5 8C0.5 6.01088 1.29018 4.10322 2.6967 2.6967C3.39314 2.00026 4.21993 1.44781 5.12987 1.0709ZM7.53033 11.5303L13.0303 6.03033L11.9697 4.96967L7 9.93934L4.53033 7.46967L3.46967 8.53033L6.46967 11.5303L7 12.0607L7.53033 11.5303Z" fill="currentColor"/>
</svg>
